<svg width="394" height="32" viewBox="0 0 394 32" fill="none" xmlns="http://www.w3.org/2000/svg">
<path d="M1.8677 31.2187C30.3377 24.2087 59.1177 18.4687 88.1077 14.0587C117.208 9.6187 146.518 6.5287 175.898 4.7587C190.538 3.8787 205.208 3.3087 219.878 3.0987C234.208 2.8887 248.658 3.1687 262.798 5.7087C266.288 6.3287 269.748 7.0887 273.168 7.9987C276.588 8.9087 279.068 9.5587 280.768 12.7487C282.258 15.5487 279.398 17.3287 277.298 18.7387C275.808 19.7387 271.498 21.6087 270.748 19.0987C269.508 14.9487 276.738 13.6987 279.368 13.0487C284.998 11.6587 290.778 10.9287 296.538 10.4087C310.988 9.1187 325.568 8.5787 340.068 8.2987C354.568 8.0187 367.988 8.2387 381.918 9.1687C385.398 9.3987 388.878 9.6787 392.348 9.9987C394.268 10.1787 394.258 7.1687 392.348 6.9987C361.608 4.1887 330.588 4.9287 299.838 7.1487C293.428 7.6087 286.988 8.3187 280.698 9.6687C277.068 10.4487 271.198 11.3387 268.898 14.6087C267.838 16.1087 267.218 18.6687 268.018 20.4387C268.938 22.4787 271.568 23.4487 273.658 23.3587C276.748 23.2287 279.608 20.9487 281.818 18.9987C283.458 17.5587 284.618 15.7087 284.198 13.4487C282.928 6.5787 275.298 5.3187 269.698 4.0387C262.418 2.3787 254.988 1.3587 247.548 0.768703C232.038 -0.471297 216.418 0.0387034 200.888 0.568703C169.058 1.6587 137.288 4.3187 105.718 8.5287C74.3877 12.7087 43.2677 18.3787 12.4977 25.5787C8.6877 26.4687 4.8777 27.3887 1.0677 28.3187C-0.802303 28.7787 -0.0123028 31.6787 1.8677 31.2087V31.2187Z" fill="url(#paint0_linear_101_89)"/>
<defs>
<linearGradient id="paint0_linear_101_89" x1="0" y1="0" x2="394" y2="31" gradientUnits="userSpaceOnUse">
<stop stop-color="#569DE6"/>
<stop offset="1" stop-color="#A54F97"/>
</linearGradient>
</defs>
</svg>
